<svg width="603" height="612" viewBox="0 0 603 612" fill="none" xmlns="http://www.w3.org/2000/svg">
<path d="M441.532 125.308C482.302 167.966 524.582 195.901 557.424 240.068C590.267 284.236 613.672 345.013 596.307 390.313C578.942 435.991 520.807 466.568 468.334 508.471C415.862 549.996 368.674 602.846 316.579 610.396C264.107 617.568 206.349 579.441 150.102 539.048C93.8544 498.656 38.7394 455.621 14.9569 398.996C-9.20308 341.993 -2.03057 271.023 21.7519 207.603C45.1569 144.183 85.1719 88.3131 138.022 49.4306C190.872 10.5481 256.179 -11.7244 308.652 6.39557C361.502 24.5156 400.762 82.2731 441.532 125.308Z" fill="#193CB8"/>
</svg>
