<svg width="30" height="30" viewBox="0 0 30 30" fill="none" xmlns="http://www.w3.org/2000/svg">
<path d="M14.9202 23.6236C19.7269 23.6236 23.6236 19.7269 23.6236 14.9202C23.6236 10.1134 19.7269 6.2168 14.9202 6.2168C10.1134 6.2168 6.2168 10.1134 6.2168 14.9202C6.2168 19.7269 10.1134 23.6236 14.9202 23.6236Z" stroke="#F0B100" stroke-width="4"/>
<path d="M7.41658 3.89941C6.5731 4.12532 5.80397 4.56932 5.18652 5.18676C4.56907 5.80421 4.12507 6.57335 3.89917 7.41682M22.4237 3.89941C23.2672 4.12532 24.0363 4.56932 24.6537 5.18676C25.2712 5.80421 25.7152 6.57335 25.9411 7.41682M14.9201 9.94702V14.6095C14.9201 14.7811 15.0594 14.9204 15.231 14.9204H18.6502" stroke="#F0B100" stroke-width="4" stroke-linecap="round"/>
</svg>
