<svg width="30" height="30" viewBox="0 0 30 30" fill="none" xmlns="http://www.w3.org/2000/svg">
<g clip-path="url(#clip0_39_243)">
<path d="M27.9751 8.08193C27.9751 4.64845 25.1919 1.86523 21.7584 1.86523H21.4047C21.032 1.8653 20.6679 1.97703 20.3593 2.18601C20.0507 2.39499 19.8117 2.69165 19.6733 3.0377L18.1403 6.86968C17.9595 7.3215 17.9153 7.81643 18.0131 8.29315C18.1109 8.76987 18.3464 9.20741 18.6905 9.55156L20.6034 11.4644C20.9098 11.7709 21.0385 12.2167 20.913 12.6319C20.3166 14.5849 19.2495 16.3614 17.8056 17.8053C16.3618 19.2492 14.5852 20.3162 12.6323 20.9126C12.217 21.0388 11.7713 20.9095 11.4648 20.603L9.55194 18.6901C9.20779 18.346 8.77024 18.1105 8.29353 18.0127C7.81681 17.9149 7.32188 17.9592 6.87005 18.1399L3.03746 19.673C2.6914 19.8114 2.39475 20.0503 2.18577 20.3589C1.97678 20.6675 1.86505 21.0316 1.86499 21.4043V21.7587C1.86499 25.1922 4.64821 27.9754 8.08169 27.9754H8.39252C19.0293 27.9754 27.6854 19.4945 27.9683 8.92616C27.9683 8.92285 27.9693 8.92015 27.9714 8.91808C27.9736 8.91594 27.9749 8.91306 27.9751 8.91V8.08193Z" stroke="#F0B100" stroke-width="3" stroke-linejoin="round"/>
</g>
<defs>
<clipPath id="clip0_39_243">
<rect width="29.8402" height="29.8402" fill="white"/>
</clipPath>
</defs>
</svg>
