<svg width="64" height="67" viewBox="0 0 64 67" fill="none" xmlns="http://www.w3.org/2000/svg">
<path d="M64 48.1801C63.9997 52.5725 62.5043 56.8329 59.7615 60.2556C57.0187 63.6783 53.193 66.0578 48.9184 67L46.8768 60.853C48.7466 60.5447 50.5248 59.8235 52.0831 58.7416C53.6415 57.6597 54.941 56.2441 55.888 54.5969H48C46.3026 54.5969 44.6748 53.9202 43.4745 52.7156C42.2743 51.511 41.6 49.8772 41.6 48.1737V35.3274C41.6 33.6239 42.2743 31.9901 43.4745 30.7855C44.6748 29.581 46.3026 28.9042 48 28.9042H57.4016C56.6207 22.6959 53.6093 16.9869 48.9326 12.8485C44.2558 8.71006 38.235 6.42662 32 6.42662C25.765 6.42662 19.7442 8.71006 15.0674 12.8485C10.3907 16.9869 7.3793 22.6959 6.5984 28.9042H16C17.6974 28.9042 19.3253 29.581 20.5255 30.7855C21.7257 31.9901 22.4 33.6239 22.4 35.3274V48.1737C22.4 49.8772 21.7257 51.511 20.5255 52.7156C19.3253 53.9202 17.6974 54.5969 16 54.5969H6.4C4.70261 54.5969 3.07475 53.9202 1.87452 52.7156C0.674284 51.511 0 49.8772 0 48.1737V32.1158C0 14.3782 14.3264 0 32 0C49.6736 0 64 14.3782 64 32.1158V48.1801Z" fill="#F0B100"/>
</svg>
