<svg width="74" height="77" viewBox="0 0 74 77" fill="none" xmlns="http://www.w3.org/2000/svg">
<path d="M57.0353 40.6055C55.9512 49.6336 50.0381 53.241 47.4842 55.8598C44.9266 58.4861 45.3846 59.0091 45.5564 62.8609C45.5851 63.3374 45.5159 63.8148 45.353 64.2636C45.1902 64.7123 44.9372 65.123 44.6096 65.4703C44.282 65.8176 43.8867 66.0941 43.4482 66.2828C43.0096 66.4715 42.5371 66.5684 42.0597 66.5675H31.9131C31.436 66.5667 30.9641 66.4687 30.5261 66.2795C30.0882 66.0902 29.6933 65.8137 29.3658 65.4669C29.0382 65.12 28.7847 64.7101 28.6208 64.262C28.457 63.814 28.3861 63.3372 28.4125 62.8609C28.4125 59.0816 28.7637 58.2036 26.4886 55.8598C23.5873 52.9585 16.7618 48.8625 16.7618 37.5973C16.7444 34.7992 17.3068 32.0278 18.4137 29.4578C19.5205 26.8878 21.1477 24.5749 23.1928 22.665C25.2379 20.7551 27.6564 19.2896 30.296 18.3608C32.9355 17.432 35.7389 17.0601 38.5293 17.2686C41.3198 17.477 44.0368 18.2612 46.5091 19.5718C48.9814 20.8824 51.1554 22.691 52.894 24.8835C54.6326 27.076 55.8982 29.6049 56.611 32.3108C57.3238 35.0167 57.4682 37.8409 57.0353 40.6055Z" stroke="#F0B100" stroke-width="4" stroke-linecap="round" stroke-linejoin="round"/>
<path d="M31.1076 66.3574V72.1293C31.1076 73.7059 31.9856 75 33.0659 75H40.9031C41.991 75 42.8652 73.7021 42.8652 72.1293V66.3574M34.0088 26.1221C31.7548 26.1231 29.5934 27.0192 28 28.6134C26.4065 30.2076 25.5113 32.3694 25.5113 34.6234M64.9755 38.3683H71.9766M57.9286 15.4181L62.8951 10.4517M61.746 57.8217L66.7124 62.7843M36.9864 2V7.66119M11.1808 10.4479L16.1129 15.4181M7.36344 62.7843L12.2955 57.8217M8.99728 38.3683H2" stroke="#F0B100" stroke-width="4" stroke-linecap="round" stroke-linejoin="round"/>
</svg>
