<svg width="30" height="30" viewBox="0 0 30 30" fill="none" xmlns="http://www.w3.org/2000/svg">
<path fill-rule="evenodd" clip-rule="evenodd" d="M20.2316 12.7712C20.2316 14.0902 19.7077 15.3552 18.775 16.2879C17.8423 17.2206 16.5773 17.7446 15.2583 17.7446C13.9393 17.7446 12.6743 17.2206 11.7416 16.2879C10.8089 15.3552 10.2849 14.0902 10.2849 12.7712C10.2849 11.4522 10.8089 10.1872 11.7416 9.25452C12.6743 8.32183 13.9393 7.79785 15.2583 7.79785C16.5773 7.79785 17.8423 8.32183 18.775 9.25452C19.7077 10.1872 20.2316 11.4522 20.2316 12.7712ZM17.745 12.7712C17.745 13.4307 17.483 14.0632 17.0166 14.5296C16.5503 14.9959 15.9178 15.2579 15.2583 15.2579C14.5988 15.2579 13.9663 14.9959 13.4999 14.5296C13.0336 14.0632 12.7716 13.4307 12.7716 12.7712C12.7716 12.1117 13.0336 11.4792 13.4999 11.0129C13.9663 10.5465 14.5988 10.2845 15.2583 10.2845C15.9178 10.2845 16.5503 10.5465 17.0166 11.0129C17.483 11.4792 17.745 12.1117 17.745 12.7712Z" fill="#F0B100"/>
<path fill-rule="evenodd" clip-rule="evenodd" d="M7.20388 20.5374C5.60101 19.0113 4.48669 17.0442 4.00182 14.8847C3.51696 12.7253 3.68333 10.4706 4.4799 8.40572C5.27646 6.34085 6.66745 4.55856 8.47695 3.28423C10.2865 2.00991 12.4332 1.30078 14.6457 1.24653C16.8583 1.19228 19.0372 1.79533 20.907 2.97944C22.7768 4.16355 24.2534 5.87552 25.1502 7.89887C26.0471 9.92222 26.3237 12.1661 25.9453 14.3467C25.5668 16.5273 24.5503 18.5467 23.0241 20.1495L15.308 28.2536L7.20388 20.5374ZM21.2238 18.4349L15.2222 24.7387L8.91844 18.7371C7.67183 17.5501 6.80518 16.0201 6.42809 14.3406C6.051 12.6611 6.1804 10.9075 6.79993 9.30148C7.41946 7.69551 8.5013 6.3093 9.90864 5.31816C11.316 4.32702 12.9856 3.77545 14.7064 3.73319C16.4272 3.69094 18.1219 4.15991 19.5762 5.08079C21.0305 6.00168 22.1791 7.33312 22.8767 8.90675C23.5743 10.4804 23.7896 12.2255 23.4954 13.9215C23.2012 15.6175 22.4106 17.1882 21.2238 18.4349Z" fill="#F0B100"/>
</svg>
