<svg width="68" height="59" viewBox="0 0 68 59" fill="none" xmlns="http://www.w3.org/2000/svg">
<path d="M24.8571 24.9167H6.57143C5.35901 24.9167 4.19625 24.4338 3.33894 23.5742C2.48163 22.7147 2 21.5489 2 20.3333V6.58333C2 5.36776 2.48163 4.20197 3.33894 3.34243C4.19625 2.48289 5.35901 2 6.57143 2H20.2857C21.4981 2 22.6609 2.48289 23.5182 3.34243C24.3755 4.20197 24.8571 5.36776 24.8571 6.58333V34.0833C24.8571 46.3056 18.7619 53.9444 6.57143 57M66 24.9167H47.7143C46.5019 24.9167 45.3391 24.4338 44.4818 23.5742C43.6245 22.7147 43.1429 21.5489 43.1429 20.3333V6.58333C43.1429 5.36776 43.6245 4.20197 44.4818 3.34243C45.3391 2.48289 46.5019 2 47.7143 2H61.4286C62.641 2 63.8038 2.48289 64.6611 3.34243C65.5184 4.20197 66 5.36776 66 6.58333V34.0833C66 46.3056 59.9048 53.9444 47.7143 57" stroke="#E5E7EB" stroke-width="4" stroke-linecap="round" stroke-linejoin="round"/>
</svg>
