<svg width="64" height="64" viewBox="0 0 64 64" fill="none" xmlns="http://www.w3.org/2000/svg">
<path d="M56.2566 0H57.0006C60.8643 0 64 3.13593 64 6.99986V7.74384C63.9975 17.0253 60.3087 25.9256 53.7449 32.4873L51.913 34.3233C50.6544 35.5793 49.3492 36.7846 47.9973 37.9392V50.7669C47.9973 53.1989 46.7374 55.4548 44.6656 56.7268L33.5705 63.5547C33.1806 63.7948 32.7408 63.9424 32.285 63.9862C31.8291 64.0301 31.3693 63.9689 30.9407 63.8075C30.5121 63.6461 30.1262 63.3888 29.8125 63.0551C29.4988 62.7215 29.2656 62.3204 29.1309 61.8827L25.3152 49.475C25.1064 49.3272 24.9122 49.1598 24.7353 48.975L15.0201 39.2632C14.8367 39.0861 14.6706 38.8919 14.5241 38.6832L2.11716 34.8673C1.67948 34.7325 1.27846 34.4994 0.944835 34.1856C0.611212 33.8719 0.353843 33.486 0.192455 33.0574C0.0310662 32.6288 -0.0300573 32.1689 0.0137693 31.713C0.0575959 31.2572 0.205209 30.8174 0.445295 30.4274L7.28472 19.3316C7.91099 18.3136 8.78748 17.4729 9.83069 16.8897C10.8739 16.3064 12.0491 16 13.2442 15.9997H26.0592C27.2137 14.645 28.419 13.3397 29.6749 12.0837L31.5107 10.2518C38.0736 3.68806 46.975 0.000391098 56.2566 0ZM35.7544 14.4917H35.7464L33.9145 16.3237C30.8748 19.3636 28.167 22.7155 25.8352 26.3235L19.8357 35.5913L28.407 44.1631L37.6742 38.1632C41.2819 35.8313 44.6336 33.1233 47.6694 30.0834L49.5052 28.2514C52.1978 25.5582 54.3335 22.3609 55.7904 18.8422C57.2474 15.3235 57.997 11.5523 57.9965 7.74384V6.99986C57.9965 6.73464 57.8912 6.4803 57.7036 6.29276C57.5161 6.10523 57.2618 5.99988 56.9966 5.99988H56.2526C48.5644 6.00099 41.1913 9.05545 35.7544 14.4917ZM14.2441 58.2388C11.3164 61.1667 4.90892 62.4187 2.22515 62.8307C2.08044 62.8553 1.93196 62.8448 1.7921 62.8003C1.65225 62.7558 1.52508 62.6784 1.42121 62.5747C1.31751 62.4708 1.24016 62.3437 1.19563 62.2038C1.15109 62.0639 1.14067 61.9154 1.16523 61.7707C1.5772 59.0868 2.8291 52.6789 5.76485 49.759C6.30767 49.1436 6.97079 48.646 7.71331 48.2968C8.45583 47.9476 9.26201 47.7542 10.0821 47.7286C10.9023 47.7029 11.7189 47.8456 12.4818 48.1477C13.2447 48.4498 13.9376 48.9051 14.5178 49.4853C15.098 50.0655 15.5532 50.7585 15.8553 51.5214C16.1574 52.2843 16.3001 53.1011 16.2744 53.9212C16.2488 54.7414 16.0554 55.5476 15.7062 56.2902C15.357 57.0328 14.8595 57.6959 14.2441 58.2388ZM42.0018 42.4991C41.6499 42.7391 41.2952 42.9724 40.9379 43.1991L31.5387 49.283L33.7305 56.4148L41.5259 51.6149C41.6714 51.5254 41.7915 51.4001 41.8748 51.2509C41.9582 51.1018 42.0019 50.9338 42.0018 50.7629V42.4991ZM14.7161 32.4633L20.8036 23.0635C21.0356 22.7035 21.2702 22.3489 21.5075 21.9995H13.2402C13.0694 21.9995 12.9014 22.0432 12.7523 22.1265C12.6031 22.2099 12.4778 22.33 12.3883 22.4755L7.5887 30.2754L14.7161 32.4633ZM48.0013 19.9996C48.0013 21.0604 47.5799 22.0778 46.8299 22.828C46.0798 23.5781 45.0624 23.9995 44.0017 23.9995C42.9409 23.9995 41.9236 23.5781 41.1735 22.828C40.4234 22.0778 40.002 21.0604 40.002 19.9996C40.002 18.9387 40.4234 17.9213 41.1735 17.1712C41.9236 16.4211 42.9409 15.9997 44.0017 15.9997C45.0624 15.9997 46.0798 16.4211 46.8299 17.1712C47.5799 17.9213 48.0013 18.9387 48.0013 19.9996Z" fill="#F0B100"/>
</svg>
